<?xml version="1.0" encoding="UTF-8" standalone="no"?>
<svg
   version="1.1"
   id="Layer_1"
   x="0px"
   y="0px"
   width="100%"
   viewBox="0 0 800 720"
   enable-background="new 0 0 800 720"
   xml:space="preserve"
   sodipodi:docname="logo.svg"
   inkscape:version="1.4 (86a8ad7, 2024-10-11)"
   xmlns:inkscape="http://www.inkscape.org/namespaces/inkscape"
   xmlns:sodipodi="http://sodipodi.sourceforge.net/DTD/sodipodi-0.dtd"
   xmlns="http://www.w3.org/2000/svg"
   xmlns:svg="http://www.w3.org/2000/svg"><defs
   id="defs44" /><sodipodi:namedview
   id="namedview44"
   pagecolor="#ffffff"
   bordercolor="#000000"
   borderopacity="0.25"
   inkscape:showpageshadow="2"
   inkscape:pageopacity="0.0"
   inkscape:pagecheckerboard="0"
   inkscape:deskcolor="#d1d1d1"
   inkscape:zoom="1.6208333"
   inkscape:cx="434.65296"
   inkscape:cy="360"
   inkscape:window-width="1724"
   inkscape:window-height="1211"
   inkscape:window-x="602"
   inkscape:window-y="377"
   inkscape:window-maximized="0"
   inkscape:current-layer="Layer_1" />
<path
   fill="#000000"
   opacity="1.000000"
   stroke="none"
   d=" M205.517105,96.347488   C215.334076,93.926170 224.875732,92.760658 234.595993,92.765030   C337.072906,92.811096 439.549866,92.792091 542.026794,92.821159   C606.848694,92.839546 655.332275,141.354309 663.434082,199.955872   C665.042969,211.593430 664.436462,223.186539 664.488770,234.835251   C664.754761,294.148682 665.603394,353.464325 664.779968,412.774139   C664.370483,442.265167 665.363037,471.779816 664.171936,501.232147   C662.203613,549.905640 634.563293,594.087708 585.062744,611.490051   C569.930176,616.810059 554.544739,619.328613 538.565063,619.320984   C437.087067,619.272400 335.607239,619.683716 234.131744,619.189575   C188.998245,618.969788 155.499191,597.484619 132.730194,558.852783   C120.072533,537.376709 114.477432,514.234253 114.569527,489.223175   C114.905762,397.910583 114.455086,306.594879 114.872543,215.282959   C115.033981,179.970612 127.141983,149.455688 153.708130,124.860519   C168.715942,110.966141 185.693390,101.781441 205.517105,96.347488  M212.868515,595.583496   C220.810272,597.571472 228.836349,598.835571 237.058716,598.832703   C337.712799,598.797363 438.366974,598.840515 539.020935,598.740540   C561.981934,598.717712 582.799072,591.765137 601.635498,578.550110   C628.692810,559.567566 640.345154,532.082092 643.577576,500.656982   C646.271484,474.466553 644.093018,448.060181 644.467590,421.750275   C644.922852,389.775024 645.062622,357.780701 644.492737,325.809692   C643.958191,295.821869 643.706970,265.827484 644.349426,235.865143   C644.733093,217.974091 643.327637,200.715637 637.691223,183.706818   C626.452087,149.790878 603.678223,128.024323 569.566833,117.843468   C555.973145,113.786316 542.147827,113.475243 528.045593,113.745201   C496.563995,114.347832 465.067322,113.563179 433.577667,113.408127   C367.433380,113.082428 301.286316,113.276802 235.140472,113.342064   C181.258545,113.395226 137.310577,156.327057 136.188843,210.159073   C135.662079,235.439056 135.549896,260.729095 135.409897,286.015472   C135.027924,354.999847 135.241364,423.982880 136.009201,492.964508   C136.089310,500.161835 136.665955,507.276917 138.275345,514.277344   C147.667755,555.131897 170.286987,583.982727 212.868515,595.583496  z"
   id="path1"
   style="fill:#6d5d41;fill-opacity:1" />
<path
   fill="#000000"
   opacity="1.000000"
   stroke="none"
   d=" M611.005127,261.382996   C611.990417,258.358215 611.029663,256.165375 609.662354,253.938568   C608.473022,252.001587 608.364807,249.661926 611.043091,249.170715   C616.425293,248.183609 621.896484,247.647125 627.348938,247.104752   C628.606384,246.979691 630.000122,247.466583 630.060669,248.801636   C619.343201,282.125916 608.144043,315.365875 614.846313,352.164948   C609.279846,353.781799 602.676636,354.267670 596.177979,355.012634   C593.493408,355.320435 593.412415,352.773193 594.617310,351.119263   C597.093079,347.720825 596.643494,343.923981 596.947876,340.117188   C598.598633,319.468018 594.374084,299.737183 588.143555,280.251495   C586.884460,276.313660 586.479431,272.108459 585.572021,268.050842   C584.748047,264.366333 584.318665,260.387146 579.999329,258.667969   C577.457336,260.009369 577.348816,262.355072 577.346436,264.689117   C577.319580,291.188263 577.385193,317.687866 577.227539,344.186157   C577.202148,348.456543 579.661072,351.663116 581.104797,355.798737   C575.091553,358.588318 568.844177,359.035675 562.595642,359.171692   C560.270142,359.222290 559.714844,357.352448 561.040955,355.707794   C563.395996,352.787018 563.062683,349.478577 563.018616,346.171143   C562.889893,336.508636 562.710083,326.849945 563.631287,317.205383   C563.859680,314.814423 563.665405,312.383057 563.665405,308.937164   C556.290283,325.181976 558.577454,342.595001 551.510986,358.030945   C546.662109,344.072723 541.346313,330.489746 538.813538,315.989258   C537.546143,322.100769 537.660950,328.203766 538.148560,334.232117   C538.827148,342.619629 536.178589,351.236267 539.884644,359.421783   C540.447876,360.665863 539.773743,361.936737 538.498657,362.183380   C532.886169,363.269135 527.262634,364.504974 521.251526,363.974213   C521.335815,362.761322 521.128784,361.908997 521.462402,361.518799   C525.841003,356.397614 524.830078,350.254028 524.577026,344.380157   C523.586731,321.394775 523.536255,298.418671 524.667114,275.439514   C524.884155,271.030365 524.071472,267.114197 519.401062,265.091522   C516.826111,266.739380 517.250671,269.420563 517.078491,271.820190   C516.887939,274.476227 516.963318,277.150360 516.826538,279.811676   C516.766968,280.971893 516.555420,282.259888 515.353638,282.795105   C513.826965,283.474945 512.952026,282.308685 511.977783,281.358795   C509.288361,278.736603 500.836700,278.120697 497.708618,280.159851   C496.010590,281.266754 496.089844,282.927399 496.011688,284.580444   C495.799225,289.071869 495.397827,293.567322 495.473419,298.054382   C495.516693,300.622162 493.731781,304.531219 497.534485,305.357422   C501.161102,306.145355 505.220612,305.672333 507.873901,302.045197   C508.996033,300.511261 509.727600,298.339081 512.296448,298.774139   C512.296448,307.392914 512.296448,315.914032 512.296448,325.237305   C507.977356,322.980621 505.144470,320.150146 500.837616,321.227631   C497.860809,321.972382 495.951935,323.020935 495.994934,326.396820   C496.084015,333.395294 496.091278,340.395020 496.094147,347.394226   C496.095459,350.582001 497.468170,352.012146 500.755188,351.434509   C505.355072,350.626221 510.139069,350.309174 512.341431,345.050659   C512.903259,343.709290 514.330994,343.328857 515.779114,343.722046   C517.374695,344.155273 517.835632,345.521362 517.667908,346.859283   C517.021606,352.014771 517.110291,357.168762 517.412231,362.329681   C517.541321,364.536407 516.323425,365.154663 514.381409,365.362793   C503.629150,366.515106 492.849640,367.439972 482.279236,369.948944   C478.738983,370.789276 477.393677,368.949860 479.066589,365.752380   C480.863922,362.317200 480.936676,358.744080 480.912720,355.062317   C480.842316,344.230133 481.258301,333.373810 480.670349,322.571198   C479.903564,308.481781 481.488464,294.447540 480.954742,280.381989   C480.813873,276.668976 481.191772,271.717438 476.514221,271.782745   C471.983887,271.846008 472.131073,276.808990 472.129150,280.515442   C472.115784,306.514740 472.127258,332.514069 472.098969,358.513336   C472.096008,361.234863 472.395813,363.811737 473.992218,366.131012   C476.018677,369.075043 475.169403,370.690094 471.645294,371.127167   C467.186310,371.680237 462.748749,372.411194 458.285767,372.924683   C456.061401,373.180634 452.610291,372.705170 454.575653,369.891235   C459.353333,363.050629 456.641815,355.604675 457.456360,348.510773   C458.116943,342.757568 457.655182,336.858093 457.448212,331.032135   C457.375641,328.988251 457.201416,325.997742 454.094086,326.609680   C450.882599,327.242157 445.666138,325.701874 445.487183,331.173157   C445.133301,341.992340 445.399963,352.832153 445.445557,363.663300   C445.448242,364.307251 445.731781,364.960663 445.939819,365.591492   C448.316437,372.798035 448.315369,372.774078 440.560486,374.082672   C437.770966,374.553406 434.991028,375.101990 432.231964,375.726624   C428.617371,376.544952 426.967896,374.908905 428.730957,371.837006   C431.261017,367.428711 430.835052,362.881531 430.833527,358.258087   C430.825439,334.272827 430.787933,310.287506 430.828094,286.302307   C430.833832,282.875427 430.690399,279.864716 427.459991,277.502136   C424.853729,275.596039 425.309814,273.308197 428.728973,272.732330   C433.809753,271.876648 438.934387,271.187866 444.068329,270.776611   C447.157227,270.529144 448.663055,272.035980 446.617706,275.050049   C445.399414,276.845367 445.254822,278.751556 445.253143,280.760834   C445.245850,289.593842 445.270996,298.427063 445.216614,307.259766   C445.198914,310.132202 445.809021,312.334167 449.330170,311.968933   C452.478943,311.642242 456.701263,312.628448 456.912781,307.645630   C457.321777,298.009979 457.407043,288.360046 457.575562,278.715149   C457.612518,276.599701 456.370880,274.992401 455.183044,273.345612   C453.297913,270.732147 453.735077,269.147522 457.263855,268.746124   C477.721283,266.419159 498.193115,264.192719 518.606873,261.524902   C524.550598,260.748138 530.521667,260.547424 536.444580,259.751434   C539.463806,259.345703 540.951599,260.505005 541.588379,263.623932   C544.051880,275.688660 546.744812,287.706604 549.371887,299.737701   C549.545593,300.533386 549.882690,301.293396 550.384033,302.784363   C553.599060,296.444061 554.265503,290.062622 555.613403,283.916534   C557.465576,275.471588 559.080750,266.971466 560.610840,258.461395   C560.994873,256.325684 562.063843,255.827103 563.935730,255.620239   C575.343079,254.359756 586.740234,253.007996 598.143188,251.706970   C600.817505,251.401840 603.099487,252.759064 601.947083,255.281586   C598.015930,263.886902 601.942871,271.932159 603.042480,280.165649   C603.337524,282.374908 603.525146,284.771057 605.671082,287.358856   C608.552002,278.646057 608.959167,270.031647 611.005127,261.382996  z"
   id="path2"
   style="fill:#695738;fill-opacity:1" />
<path
   fill="#000000"
   opacity="1.000000"
   stroke="none"
   d=" M223.611710,296.557678   C229.999557,295.702026 235.929459,294.817261 241.879288,294.097076   C252.869232,292.766785 260.278381,299.310120 260.279572,310.259888   C260.280273,316.757538 260.349121,323.257080 260.218872,329.752350   C260.081299,336.613800 258.622711,343.003418 252.754639,347.482697   C251.156601,348.702545 251.080597,350.295593 251.659805,351.972870   C255.198868,362.221100 257.331696,372.838074 259.955444,383.326904   C260.692535,386.273499 261.891052,388.988708 264.694000,391.063538   C267.588135,388.971527 268.765045,386.098480 268.770325,382.622894   C268.787964,370.960693 269.794586,359.178558 268.409149,347.685059   C267.676636,341.608154 267.946381,336.093719 268.511169,330.164032   C269.328949,321.578552 268.682556,312.857697 268.762238,304.195526   C268.789886,301.189758 268.014740,298.634460 265.758850,296.569275   C264.495056,295.412292 263.416016,294.071716 264.047211,292.205292   C264.698608,290.279266 266.458527,290.171173 268.132568,289.952301   C286.098419,287.603241 304.060883,285.228058 322.030212,282.905914   C323.785736,282.679077 325.867340,282.007690 327.108887,283.838257   C328.308533,285.607056 326.360718,286.813354 325.844818,288.299713   C323.924042,293.833466 325.199036,299.546631 325.392670,305.141785   C325.685883,313.613281 326.648865,322.063049 327.398438,330.515686   C327.509521,331.768188 328.010132,332.986115 329.143188,334.198120   C329.979828,327.335999 330.887787,320.481628 331.632568,313.609589   C332.349152,306.997681 332.908386,300.368530 333.513519,293.744843   C333.774231,290.890961 333.577698,288.150452 332.189514,285.496033   C330.729065,282.703491 331.670715,280.930847 334.958252,280.953705   C338.668060,280.979462 342.211273,280.091095 345.804230,279.378143   C347.996674,278.943054 350.181610,279.270630 349.400360,282.329010   C346.919312,292.041473 348.305603,301.882355 348.663788,311.616058   C348.853455,316.769226 348.287872,322.254883 350.789093,328.080383   C353.164551,320.642090 352.389130,313.593018 353.549072,306.812073   C354.500214,301.251801 354.991333,295.610992 355.624390,289.998901   C355.961060,287.014191 356.217926,284.119446 353.897217,281.524445   C352.005096,279.408752 353.083740,277.731506 355.614746,277.256561   C360.022064,276.429504 364.457001,275.696259 368.910706,275.191162   C371.317078,274.918243 374.188538,276.116272 372.269440,278.727264   C367.951660,284.601685 368.325928,291.379791 367.611359,297.846436   C365.235291,319.348145 363.320068,340.900848 361.237061,362.434814   C360.678925,368.204681 359.150238,373.954803 360.848419,379.778564   C360.939026,380.089417 361.061005,380.533875 360.917664,380.749176   C358.013275,385.111664 352.954437,382.685181 349.134735,384.405365   C346.794525,385.459290 346.171356,383.249298 345.745087,381.322479   C343.442200,370.912628 341.477295,360.453705 340.788940,349.790161   C340.739319,349.021027 340.474915,348.265747 339.693176,347.470581   C336.356262,359.625183 333.394592,371.780060 334.237427,385.351410   C329.411377,387.440308 323.550598,387.423859 318.260803,388.252655   C318.237915,365.822968 313.231171,344.549255 312.365570,322.927185   C312.019348,314.278625 311.277557,305.645447 310.682953,297.007507   C310.475891,293.999725 310.237335,290.958557 306.384735,289.836670   C302.298218,294.434082 305.651703,300.233490 303.967041,304.960541   C302.805847,305.665466 301.632233,305.694275 300.977295,304.947296   C296.459900,299.794861 291.150848,302.714783 286.092133,303.412140   C284.189209,303.674469 283.266418,305.107178 283.256317,306.988739   C283.219635,313.817017 283.231567,320.645508 283.223053,327.473938   C283.219696,330.155914 284.747894,330.930481 287.142487,330.630188   C291.479553,330.086334 295.184814,328.519348 297.333710,324.390289   C297.906708,323.289246 298.690704,322.454468 300.100433,322.808258   C301.432770,323.142700 302.192474,324.183228 301.976898,325.391937   C300.618042,333.010010 300.449097,340.757965 299.979950,348.384338   C297.153351,348.745331 296.234680,346.808014 294.846100,345.782684   C291.827179,343.553497 288.767853,344.568359 285.781128,345.570801   C282.877625,346.545380 283.343323,349.216949 283.324860,351.504120   C283.272400,358.001526 283.444611,364.505371 283.207764,370.994965   C283.053162,375.231537 284.979248,376.263885 288.700012,375.580353   C293.757629,374.651215 299.082153,374.396637 301.835602,368.838470   C302.503693,367.489807 304.055756,366.636993 305.669891,367.370514   C307.244415,368.086060 306.670471,369.596252 306.552063,370.905029   C306.117462,375.710846 305.498413,380.515198 305.390564,385.330017   C305.319183,388.517090 303.985291,389.840363 301.008118,390.123291   C284.428436,391.699036 268.075684,394.823975 251.665176,397.527893   C248.206055,398.097809 247.316605,396.777161 246.799026,393.780182   C244.814545,382.289368 241.747787,371.043427 238.769318,359.781372   C238.347473,358.186279 238.074783,356.142609 235.789062,356.581207   C233.829620,356.957153 234.229614,358.926575 234.225159,360.335693   C234.195160,369.831940 234.313278,379.329071 234.228973,388.824524   C234.197311,392.390686 237.310852,394.612457 238.039154,398.425140   C231.122116,400.769989 224.068146,400.574493 217.520081,401.946899   C216.986038,400.885345 216.637024,400.490173 216.724411,400.322662   C222.385681,389.469055 219.826035,377.791229 219.495834,366.549683   C218.967056,348.547699 220.292114,330.603119 220.029968,312.628113   C219.982666,309.384583 219.849747,306.359528 217.268692,303.903412   C215.869446,302.571930 214.059113,301.058746 214.991211,298.771667   C216.049423,296.175171 218.603745,296.960327 220.668823,296.752594   C221.496780,296.669312 222.331253,296.650787 223.611710,296.557678  M234.283310,313.231689   C234.268539,320.893402 234.221664,328.555267 234.265549,336.216644   C234.274551,337.786316 233.884018,339.675842 236.183853,340.272064   C240.005463,341.262787 245.512375,337.552521 245.629425,333.419464   C245.803665,327.267975 245.575836,321.099548 245.344742,314.944885   C245.253433,312.513123 244.347260,310.205353 241.596283,309.673340   C238.746033,309.122131 235.863007,309.025238 234.283310,313.231689  z"
   id="path3"
   style="fill:#695738;fill-opacity:1" />
<path
   fill="#000000"
   opacity="1.000000"
   stroke="none"
   d=" M416.242920,552.104980   C415.080994,551.246399 414.535156,549.986023 412.515350,550.315002   C410.491730,561.078918 403.438019,568.936890 395.570618,576.248230   C389.966248,581.456482 388.528015,581.267944 383.513641,575.576660   C376.776489,567.930054 369.856445,560.449402 368.491119,550.057800   C366.161987,549.130310 365.259796,550.654968 364.124146,551.477905   C358.188293,555.778931 355.965485,555.143005 352.691223,548.487183   C347.675476,538.291321 344.770325,527.676086 345.618988,516.203552   C345.845062,513.146851 346.178589,509.986115 341.334106,510.470306   C339.541199,510.649445 339.018005,509.058411 338.753723,507.410370   C334.847137,483.046539 349.690186,457.577454 372.929565,447.561401   C389.458862,440.437408 415.076385,447.193237 427.647827,460.598419   C439.986237,473.755096 442.287048,489.958618 443.128723,506.800690   C443.368103,511.590576 439.806488,511.277740 436.266113,511.299866   C436.108429,521.543396 434.884338,531.404053 431.335022,540.819763   C430.222717,543.770569 429.011322,546.712158 427.530029,549.489868   C424.325134,555.499878 422.325470,555.941956 416.242920,552.104980  M378.024597,543.750793   C378.417480,553.264832 382.699890,560.684570 389.983185,566.859253   C396.645599,561.138611 400.163147,554.096558 402.469025,546.347839   C402.941345,544.760742 402.948761,543.010986 402.028015,541.497375   C399.808411,537.848511 397.528625,534.236267 395.105988,530.340454   C391.431000,533.059937 387.862457,533.257080 384.161926,530.676453   C382.126312,535.051514 379.009430,538.417969 378.024597,543.750793  M411.276489,469.642517   C411.546021,474.365265 410.926086,478.909119 408.666809,483.151093   C407.942352,484.511292 407.466644,485.878387 408.903656,487.205322   C414.024994,491.934204 419.036163,496.853851 425.396545,499.902374   C429.379028,501.811157 430.873077,500.713745 430.956238,496.263824   C431.161743,485.262604 427.498871,475.726349 419.652100,467.982574   C417.079407,465.443665 414.981476,462.114136 410.644684,460.972107   C410.874939,463.869934 411.068604,466.306976 411.276489,469.642517  M370.445862,477.768768   C367.905914,472.597626 369.930817,467.169922 370.144745,462.127930   C368.250214,461.259521 367.273926,462.072510 366.399445,462.758728   C356.009338,470.912354 349.726868,481.155762 350.236084,494.816467   C350.418945,499.722687 351.956879,500.669250 356.501160,498.561432   C362.297943,495.872559 366.856567,491.359833 372.110901,487.868866   C373.805695,486.742859 373.857849,485.230957 372.993225,483.503754   C372.174988,481.869263 371.474426,480.175842 370.445862,477.768768  M382.439301,477.030090   C382.704773,477.453369 382.976410,477.872894 383.234772,478.300476   C389.558380,488.764435 390.083801,488.787415 397.567169,478.921143   C403.065948,471.671417 401.561432,459.720154 394.407349,454.051422   C391.578735,451.810089 388.727600,451.455750 385.870605,454.087830   C379.892883,459.594971 378.206757,469.327942 382.439301,477.030090  M412.097961,535.392883   C414.197449,537.112000 415.520844,539.879395 418.816284,540.487671   C424.818420,531.258606 425.563507,521.198486 424.460846,510.789459   C424.398865,510.204285 423.956909,509.421783 423.463593,509.158020   C420.039154,507.327209 416.554199,505.609467 412.821167,503.720062   C411.055084,508.187164 410.185333,512.685852 407.749359,516.050781   C403.233246,522.288940 404.384521,527.267456 409.332001,532.239807   C410.149384,533.061279 410.852325,533.996643 412.097961,535.392883  M367.185089,504.616333   C362.886871,505.427826 359.314972,507.613708 357.633484,511.604675   C353.381073,521.697449 355.032562,531.256470 361.049500,540.685852   C366.851624,536.190491 372.107697,531.802368 375.330688,525.405212   C376.019501,524.037964 376.076324,522.925415 375.292297,521.702820   C371.959656,516.506104 370.162384,510.617157 367.185089,504.616333  M398.322723,494.260315   C396.225922,496.419159 394.157623,498.725281 390.951080,499.063904   C386.080902,499.578156 384.289368,494.535339 380.593201,492.968262   C374.293884,498.510559 379.047882,511.723816 390.141815,521.356873   C397.393646,515.437317 401.869812,507.958435 402.615326,498.529327   C402.790009,496.319977 403.248871,492.763458 398.322723,494.260315  z"
   id="path4"
   style="fill:#695738;fill-opacity:1" />
<path
   fill="#000000"
   opacity="1.000000"
   stroke="none"
   d=" M179.939880,421.139282   C171.453217,422.379700 163.206223,422.546967 155.576248,425.888367   C154.488861,426.364563 153.228165,426.700867 152.356079,425.593750   C151.435379,424.424866 151.670746,423.069977 152.384186,421.843140   C152.715027,421.274170 153.105225,420.672974 153.619324,420.287506   C160.433853,415.178131 161.155212,408.001373 161.113235,400.184387   C160.933395,366.693420 160.928574,333.200409 161.119568,299.709625   C161.152954,293.853271 159.310089,289.394104 154.934647,285.725494   C153.163666,284.240601 151.012299,282.654297 151.980362,279.922058   C153.012558,277.008759 155.840103,277.862396 158.033432,277.707520   C169.324341,276.910126 180.517105,275.193359 191.827728,274.456055   C203.205200,273.714386 211.160965,280.069336 210.807999,291.367188   C210.454117,302.693939 210.196976,313.990631 210.943466,325.313812   C211.375351,331.865021 208.409714,337.210663 202.682114,341.913635   C212.245041,347.558563 211.408859,356.257996 211.325348,364.831573   C211.211761,376.493408 211.358459,388.157867 211.406998,399.821167   C211.448074,409.690765 206.348999,416.192078 196.612991,418.257843   C191.242996,419.397278 185.792725,420.158417 179.939880,421.139282  M178.257690,383.500183   C178.257690,390.035828 178.257690,396.571503 178.257690,403.053772   C193.128326,403.290497 193.778366,402.910522 194.423096,389.411255   C194.882477,379.792755 194.816620,370.140198 194.692947,360.506592   C194.630157,355.615112 190.922958,352.549164 186.172668,352.791901   C179.304306,353.142883 178.282196,354.163757 178.287582,360.565186   C178.293732,367.876923 178.273712,375.188629 178.257690,383.500183  M192.535965,331.939087   C193.834930,330.516815 194.492310,328.750244 194.466217,326.917053   C194.328995,317.277496 194.154495,307.636536 193.804733,298.002899   C193.662628,294.088440 190.860825,292.523499 187.366531,292.548798   C185.080246,292.565369 182.793655,293.319702 180.517822,293.794464   C177.903214,294.339935 176.973389,296.076569 177.392349,298.581696   C179.051437,308.501801 177.961700,318.489868 178.103180,328.443634   C178.210541,335.997345 179.462677,337.169739 186.852432,335.363739   C188.827103,334.881165 190.583633,333.967651 192.535965,331.939087  z"
   id="path5"
   style="fill:#695738;fill-opacity:1" />
<path
   fill="#000000"
   opacity="1.000000"
   stroke="none"
   d=" M405.362793,257.490936   C415.544678,256.523987 422.168427,262.430908 422.316406,272.133972   C422.387543,276.797394 422.400970,281.465973 422.648010,286.121185   C422.893738,290.751923 423.399506,295.368866 423.858429,300.784576   C417.029022,301.418335 410.159576,301.694580 403.081299,304.327057   C403.061737,299.360474 405.298523,295.798492 405.171967,291.830963   C405.076996,288.854797 405.557404,285.858826 405.805054,282.873596   C406.156921,278.632111 404.796234,275.614227 400.122284,275.107117   C395.284637,274.582306 391.041199,277.398071 390.589600,281.837494   C390.203735,285.630371 390.285950,289.501221 390.495514,293.319244   C391.711456,315.471558 391.090576,337.627838 390.732727,359.782501   C390.630554,366.108978 392.463104,368.958679 397.119171,368.975433   C402.675354,368.995422 405.740814,365.795074 405.759521,359.739685   C405.781921,352.473694 406.447479,345.138519 402.855988,337.573090   C410.117554,337.044281 416.462708,336.368744 422.349182,334.182373   C424.295288,336.593445 423.077606,338.779266 423.092529,340.833405   C423.154266,349.330963 423.163300,357.830353 423.057892,366.327362   C422.936401,376.118866 418.567688,381.522430 409.013000,383.537231   C403.969452,384.600769 398.871735,385.621979 393.747498,386.045044   C382.072388,387.009033 373.975800,379.491699 373.919861,367.680481   C373.813354,345.184875 373.839966,322.688202 373.929871,300.192413   C373.961823,292.201935 374.310883,284.211975 374.565460,276.223389   C374.812256,268.478302 380.487640,261.421326 388.106110,259.665039   C393.627472,258.392181 399.267120,257.790894 405.362793,257.490936  z"
   id="path6"
   style="fill:#695738;fill-opacity:1" />
<path
   fill="#000000"
   opacity="1.000000"
   stroke="none"
   d=" M258.985718,249.179382   C246.342453,249.611618 234.191345,250.044724 222.039032,250.440231   C220.385803,250.494049 218.691269,250.555435 217.078461,250.265305   C214.873856,249.868713 213.645569,248.314270 213.418182,246.083221   C213.209763,244.038223 214.154602,242.520905 215.892838,241.546417   C218.131653,240.291306 220.626587,240.015137 223.136108,239.920547   C256.774292,238.652390 290.425934,238.614197 324.080414,238.816650   C329.150482,238.847137 333.322113,240.200577 334.894867,245.703873   C335.324890,247.208572 336.262390,248.317688 337.631836,249.120361   C340.272980,250.668457 342.033020,252.822235 341.362518,256.072510   C340.695007,259.308350 337.989349,260.510925 335.220795,261.271790   C324.620911,264.184753 313.970856,267.153351 303.012939,268.106628   C279.445953,270.156769 256.120148,274.035217 232.652145,276.810425   C231.660263,276.927734 230.659851,277.171661 229.675781,277.120178   C226.248688,276.940918 223.176758,275.793579 222.871155,271.934021   C222.583130,268.296387 225.531815,267.264282 228.497650,266.850159   C243.333405,264.778900 258.161072,262.636780 273.022797,260.767944   C290.007843,258.632111 307.324585,259.403625 324.052765,254.971375   C324.534760,254.843689 325.052948,254.835251 325.520782,254.674133   C327.494659,253.994354 330.572327,253.884842 330.292084,251.230759   C329.984253,248.315384 326.854187,249.337845 324.881042,249.183792   C303.083099,247.482071 281.279327,248.162338 258.985718,249.179382  z"
   id="path7"
   style="fill:#695738;fill-opacity:1" />
<path
   fill="#000000"
   opacity="1.000000"
   stroke="none"
   d=" M455.160645,251.290039   C452.568329,251.571121 450.423676,251.987946 448.271576,252.031006   C444.540558,252.105713 442.160370,250.117233 441.885925,246.438339   C441.616241,242.822571 443.858215,240.918747 447.361603,240.663605   C455.987152,240.035477 464.611176,239.200699 473.249695,238.970642   C498.255676,238.304749 522.839172,233.686935 547.661438,231.338531   C553.786804,230.759033 559.930176,230.006638 566.066711,229.993988   C575.247803,229.975052 584.339722,229.240494 593.424133,228.072891   C595.731201,227.776337 598.080261,227.700821 600.364929,228.382095   C602.029602,228.878510 603.685242,229.675720 603.863281,231.526642   C604.058594,233.558578 602.189087,234.331711 600.666687,234.864929   C596.176392,236.437607 591.466187,236.560974 586.841248,235.916000   C581.468994,235.166809 576.651794,235.328796 571.464478,237.911545   C565.671753,240.795700 558.780212,240.260345 552.350342,240.963089   C520.111877,244.486588 487.855225,247.842651 455.160645,251.290039  z"
   id="path8"
   style="fill:#695738;fill-opacity:1" />
<path
   fill="#000000"
   opacity="1.000000"
   stroke="none"
   d=" M540.999878,452.249084   C513.013611,453.967255 485.585693,451.644623 458.134613,451.001282   C453.162262,450.884796 448.131104,450.743134 443.280731,449.383392   C440.721985,448.666046 438.520233,447.326355 438.894409,444.209045   C439.290619,440.908417 441.894867,440.737671 444.527893,440.637054   C461.504700,439.988617 478.376312,441.057617 495.320984,442.362732   C516.066040,443.960602 536.944275,443.117279 557.758484,442.310974   C561.750549,442.156311 565.746277,441.608673 569.699951,442.494751   C572.372803,443.093811 575.138916,443.924652 574.790649,447.488983   C574.461853,450.853729 572.299744,452.380981 568.966675,452.363922   C559.811096,452.317169 550.655334,452.286438 540.999878,452.249084  z"
   id="path9"
   style="fill:#695738;fill-opacity:1" />
<path
   fill="#000000"
   opacity="1.000000"
   stroke="none"
   d=" M230.792770,459.693542   C247.942932,457.672058 264.657349,455.883728 281.513428,455.777618   C296.844910,455.681091 312.090424,454.063324 327.361023,452.905487   C329.342957,452.755249 331.368744,452.702484 333.333466,452.940796   C335.313446,453.180878 336.604004,454.563110 337.091980,456.499176   C337.587402,458.464935 336.975708,460.109100 335.293671,461.310028   C332.803894,463.087708 330.115570,464.230865 326.988434,464.373230   C293.882782,465.880524 260.779358,467.437531 227.673157,468.933167   C224.359711,469.082825 221.006302,469.433441 217.733444,468.454559   C216.091766,467.963531 214.343430,467.371979 214.348236,465.344055   C214.352798,463.422089 215.909439,462.339478 217.572968,461.991821   C221.804077,461.107513 226.085602,460.464355 230.792770,459.693542  z"
   id="path10"
   style="fill:#695738;fill-opacity:1" />
<path
   fill="#000000"
   opacity="1.000000"
   stroke="none"
   d=" M394.497803,219.295731   C389.014313,220.086243 383.296692,218.731140 379.430725,223.788910   C374.147217,221.106049 371.776215,217.487381 371.878418,211.194504   C372.087311,198.332367 378.955292,189.432739 387.505737,181.166824   C389.092926,179.632477 390.544373,179.714951 392.384552,180.873535   C402.248474,187.083832 409.625000,203.979614 407.385925,215.491760   C406.634186,219.356888 406.634186,219.356888 401.251526,222.746094   C399.281769,221.446396 397.604675,219.394562 394.497803,219.295731  z"
   id="path11"
   style="fill:#695738;fill-opacity:1" />
<path
   fill="#000000"
   opacity="1.000000"
   stroke="none"
   d=" M604.582520,422.198456   C606.930786,424.079651 607.754272,426.143341 606.699158,428.619995   C605.483521,431.473389 602.978455,432.252197 600.145752,432.242615   C584.326721,432.189087 568.552856,432.826874 552.767944,434.082001   C532.532593,435.691010 512.237671,436.549927 491.968811,437.739227   C490.168182,437.844849 488.321991,438.227570 486.548126,436.490753   C488.874420,432.664825 492.669250,431.377106 496.523529,430.912537   C506.596191,429.698395 516.715515,428.869324 526.818115,427.906464   C550.339722,425.664703 573.930664,424.154846 597.386536,421.222900   C599.747009,420.927826 602.037354,420.978119 604.582520,422.198456  z"
   id="path12"
   style="fill:#695738;fill-opacity:1" />
<path
   fill="#000000"
   opacity="1.000000"
   stroke="none"
   d=" M522.940186,399.992798   C522.885681,390.706543 525.236328,389.507324 512.381042,390.269958   C510.549347,390.378662 507.752625,389.550018 507.710449,392.521912   C507.671112,395.293823 510.445709,394.837189 512.303284,395.200623   C513.848999,395.503021 515.314392,395.896576 515.393066,397.826660   C515.479797,399.953674 514.004028,400.884430 512.245972,400.990601   C507.250000,401.292389 505.134430,403.240662 507.246368,408.376373   C507.879395,409.915680 506.781647,410.922424 505.180328,411.016968   C503.250031,411.130920 501.135651,410.854645 501.038086,408.484680   C500.744080,401.340332 500.568756,394.178314 501.434692,387.051971   C501.627899,385.462189 502.820587,384.974426 504.318939,384.906372   C515.374756,384.404419 526.279175,382.503632 537.260742,381.312317   C539.318970,381.089050 540.179199,382.497681 540.861755,384.126038   C541.531311,385.723267 541.086304,387.844635 543.085632,388.926086   C545.347046,387.570587 544.441101,384.988281 545.370178,383.146240   C545.952576,381.991638 545.968262,380.388123 547.676575,380.290466   C549.026123,380.213318 549.628418,381.362671 550.268799,382.345123   C551.070801,383.575531 551.547913,385.069214 553.071289,385.832550   C554.995605,385.273499 554.611267,383.521576 554.812073,382.168365   C555.377502,378.358582 558.164124,378.286499 560.836548,378.876587   C564.371216,379.657104 562.481018,382.308990 562.017822,384.128937   C560.707214,389.277496 559.174011,394.370361 557.676514,399.469879   C557.134338,401.316132 557.215332,403.776886 554.740601,404.231567   C551.952271,404.743805 551.254944,402.235962 550.155945,400.435974   C549.736145,399.748322 549.317139,399.060120 548.873779,398.332916   C546.743469,399.067078 546.901001,400.975769 546.259949,402.383179   C545.599487,403.833282 545.507507,405.937469 543.336914,405.908936   C541.369934,405.883087 540.599609,404.081635 540.023132,402.567963   C538.256592,397.929565 536.663269,393.225220 534.919983,388.313751   C530.897583,388.609558 528.894653,390.411865 529.171021,394.595642   C529.357178,397.413635 529.153809,400.255280 529.262695,403.081055   C529.375916,406.017517 528.967285,408.720734 525.336304,408.709839   C521.420776,408.698120 523.108337,405.467224 522.829163,403.459991   C522.693787,402.486481 522.878723,401.468384 522.940186,399.992798  z"
   id="path13"
   style="fill:#695738;fill-opacity:1" />
<path
   fill="#000000"
   opacity="1.000000"
   stroke="none"
   d=" M384.207764,407.044495   C388.073273,406.913330 386.620300,403.574188 387.402893,401.657623   C388.293823,399.475922 388.727081,397.379578 391.703156,398.197052   C394.553558,398.980011 394.480347,401.075226 393.822937,403.385651   C392.092651,409.466553 390.442352,415.570923 388.644714,421.631653   C388.100739,423.465546 387.984009,425.963318 385.539886,426.302673   C383.201660,426.627319 383.038300,424.008301 381.848328,422.753235   C381.407684,422.288544 380.892944,421.894073 380.527222,421.569763   C378.374207,421.723602 378.065582,423.362488 377.445099,424.671600   C376.734711,426.170441 376.245148,428.043457 374.138275,427.846832   C372.118469,427.658264 371.751892,425.707581 371.188507,424.195984   C370.026215,421.077484 369.079102,417.878510 367.907837,414.763672   C365.771973,409.083679 360.047577,407.914337 354.840820,412.053162   C355.493103,414.036438 357.153961,413.605713 358.577148,413.520447   C360.198700,413.423340 361.716675,413.436066 361.937531,415.489105   C362.141937,417.389221 361.265717,418.726410 359.345673,419.169952   C357.607666,419.571472 355.714294,419.643402 354.834686,421.673187   C356.362976,423.608002 358.340515,422.587982 360.030640,422.740753   C362.270020,422.943146 363.343140,424.169037 363.594299,426.205627   C363.861633,428.373108 362.427734,428.897949 360.604004,429.358612   C347.996643,432.543213 347.556458,432.281525 347.659607,419.302277   C347.697723,414.501831 345.732422,408.538055 348.598785,405.215607   C351.453430,401.906769 357.658356,403.585541 362.354401,402.756989   C367.595032,401.832367 367.644379,402.112000 374.228790,409.322876   C377.867035,407.217346 375.857086,402.392548 378.747986,399.710876   C381.491974,401.420471 382.405090,404.396149 384.207764,407.044495  z"
   id="path14"
   style="fill:#695738;fill-opacity:1" />
<path
   fill="#000000"
   opacity="1.000000"
   stroke="none"
   d=" M399.159851,138.907150   C408.142822,151.319595 408.150085,151.540634 398.893860,163.324463   C397.564972,165.016266 396.109894,166.615387 394.639099,168.188080   C389.481354,173.703140 389.555115,173.629440 384.937714,167.235992   C382.809875,164.289703 380.460907,161.446518 377.871002,158.904190   C374.239716,155.339615 373.967041,151.376312 375.817963,147.055847   C378.481201,140.839386 383.343567,136.173569 387.484009,131.005615   C388.885345,129.256485 390.457214,129.738373 391.766663,131.042038   C394.231903,133.496384 396.568756,136.079697 399.159851,138.907150  z"
   id="path15"
   style="fill:#695738;fill-opacity:1" />
<path
   fill="#000000"
   opacity="1.000000"
   stroke="none"
   d=" M399.454315,180.495514   C395.388916,177.634705 395.775818,174.803757 398.505463,171.558807   C403.845215,165.210938 408.856232,158.587662 414.816193,152.771225   C417.585541,150.068527 419.460114,150.755829 420.676208,154.088196   C423.185669,160.964752 425.209900,167.969955 426.059418,175.279938   C426.424866,178.424698 425.361755,180.740753 422.716553,182.481689   C418.971619,184.946411 415.238495,187.445206 412.179871,190.788193   C410.159088,192.996887 408.333496,192.553329 407.046173,190.137695   C405.138885,186.558563 402.354462,183.717163 399.454315,180.495514  z"
   id="path16"
   style="fill:#695738;fill-opacity:1" />
<path
   fill="#000000"
   opacity="1.000000"
   stroke="none"
   d=" M382.860687,171.189636   C385.050079,174.229706 384.750336,176.698975 382.196808,178.941605   C377.697754,182.892868 373.539520,187.151901 370.191010,193.117126   C365.068237,188.477524 360.078339,184.267258 355.500061,179.648972   C353.834381,177.968704 354.566925,175.172821 354.945312,172.900162   C356.175415,165.511642 359.342255,158.715332 361.562347,150.554977   C371.223145,155.241348 375.853912,164.254425 382.860687,171.189636  z"
   id="path17"
   style="fill:#695738;fill-opacity:1" />
<path
   fill="#000000"
   opacity="1.000000"
   stroke="none"
   d=" M460.783142,414.509277   C459.071075,413.521606 457.857361,412.470642 458.569672,410.745239   C459.347260,408.861877 461.147125,408.860077 462.850220,409.124420   C464.614716,409.398193 466.445251,410.317627 468.055389,407.928650   C466.777557,405.321869 463.689667,404.799072 461.613159,403.093567   C457.903503,400.046661 457.559479,396.886658 460.778625,392.837616   C463.945709,388.854065 469.626221,387.509918 472.697449,390.005859   C474.122345,391.163849 474.804749,392.628510 474.235596,394.405853   C473.609558,396.360748 471.980896,396.001007 470.488647,395.747559   C469.334991,395.551636 468.182129,395.247589 467.048035,396.643219   C468.803986,400.040131 472.299408,400.997803 475.799927,402.792328   C477.539886,396.219971 479.265503,389.841339 485.958160,386.968933   C488.193146,386.009674 490.526428,386.523651 492.670288,387.745636   C499.115356,391.419312 501.245819,400.593964 497.100098,406.922974   C491.785278,415.036804 486.633942,415.300568 476.464142,407.620270   C473.379486,414.259735 468.814056,418.132355 460.783142,414.509277  M490.914276,404.186951   C492.032227,401.996185 492.042969,399.663605 491.329346,397.432251   C490.615906,395.201385 489.033325,393.621307 486.463318,394.319763   C483.867279,395.025238 483.885986,397.559845 483.542542,399.600311   C483.118958,402.117065 483.302429,404.735901 485.720917,406.246277   C487.588379,407.412537 489.173279,406.228027 490.914276,404.186951  z"
   id="path18"
   style="fill:#695738;fill-opacity:1" />
<path
   fill="#000000"
   opacity="1.000000"
   stroke="none"
   d=" M436.399170,219.109222   C432.698792,229.540283 427.782959,238.638336 418.388702,244.515686   C417.128235,245.304276 415.770142,245.967377 414.393921,246.535110   C408.630707,248.912598 407.628204,248.176880 408.402252,242.020386   C408.916199,237.933014 408.510712,233.964600 406.407898,230.451157   C404.828583,227.812469 405.497864,226.379944 407.788330,224.727127   C415.178589,219.394363 423.230560,215.739365 432.215912,214.040176   C436.506683,213.228775 437.926361,214.552155 436.399170,219.109222  z"
   id="path19"
   style="fill:#695738;fill-opacity:1" />
<path
   fill="#000000"
   opacity="1.000000"
   stroke="none"
   d=" M343.720581,216.212341   C342.764526,213.641754 343.381470,212.590790 345.828186,213.109924   C355.747437,215.214447 364.850098,219.109680 372.774872,225.535751   C373.826385,226.388412 374.960541,227.514847 374.403320,228.924301   C372.079926,234.801300 373.213806,240.649323 374.767151,247.081741   C368.093658,247.389038 363.107483,244.761459 358.589508,241.032684   C350.826721,234.625885 346.801544,225.910767 343.720581,216.212341  z"
   id="path20"
   style="fill:#695738;fill-opacity:1" />
<path
   fill="#000000"
   opacity="1.000000"
   stroke="none"
   d=" M412.473389,211.577057   C408.309906,198.482391 416.695190,192.326721 425.467590,186.402267   C426.701447,185.568954 428.074219,184.939438 429.391113,184.231323   C436.174835,180.583771 436.993164,181.085068 437.169342,189.043945   C437.283356,194.192856 437.472565,199.335968 436.110107,204.401428   C435.361603,207.184143 434.089294,208.924011 431.013855,209.742325   C424.962585,211.352448 419.057709,213.512680 413.249084,215.394531   C411.837921,214.280594 412.636444,213.046539 412.473389,211.577057  z"
   id="path21"
   style="fill:#695738;fill-opacity:1" />
<path
   fill="#000000"
   opacity="1.000000"
   stroke="none"
   d=" M349.063385,209.107361   C345.001709,207.305420 344.867462,203.923050 344.631927,200.570694   C344.180573,194.145569 344.594055,187.766449 345.147827,180.588562   C353.203522,183.707428 358.752991,189.068329 364.461212,194.174820   C371.519592,200.489136 366.597107,208.944778 369.415497,217.476883   C361.896576,214.257217 356.058319,210.688049 349.063385,209.107361  z"
   id="path22"
   style="fill:#695738;fill-opacity:1" />
<path
   fill="#000000"
   opacity="1.000000"
   stroke="none"
   d=" M392.574524,225.937286   C399.593567,229.060974 403.468933,234.042358 403.530579,241.489471   C403.561127,245.177078 401.999634,247.683411 397.926880,248.516251   C394.124756,249.293732 390.341034,249.492996 386.538025,249.277481   C380.241730,248.920670 375.437988,241.426514 378.337067,235.780334   C381.128601,230.343613 385.600342,226.391113 392.574524,225.937286  z"
   id="path23"
   style="fill:#695738;fill-opacity:1" />
<path
   fill="#000000"
   opacity="1.000000"
   stroke="none"
   d=" M480.183716,220.591400   C478.318085,225.956665 474.764374,228.991119 469.617096,229.828064   C466.192627,230.384903 463.466278,228.653625 461.496368,225.926788   C459.204254,222.753952 460.168152,220.583069 464.029480,220.053070   C465.481262,219.853790 466.960541,219.854980 468.390839,219.767014   C468.655426,217.982101 467.363129,218.047043 466.531799,217.781967   C460.988617,216.014557 459.404724,213.658051 459.765594,207.972656   C460.092926,202.815918 463.713074,201.391586 467.885742,200.807373   C470.661713,200.418686 473.553345,200.158218 476.204773,201.575043   C478.066681,202.569977 479.507599,203.965393 479.306183,206.265808   C479.077271,208.880386 476.758850,208.450867 475.099701,208.837753   C473.816498,209.136963 472.474396,209.183548 469.583832,209.532547   C475.957031,211.519531 481.212860,213.226944 480.183716,220.591400  z"
   id="path24"
   style="fill:#695738;fill-opacity:1" />
<path
   fill="#000000"
   opacity="1.000000"
   stroke="none"
   d=" M322.413086,414.695984   C322.926025,418.857697 321.520691,422.413910 324.488220,426.510468   C326.642212,429.483917 321.329010,432.807312 318.387756,434.885590   C315.373657,437.015289 311.403564,436.823395 307.749481,437.035980   C305.384521,437.173553 305.110870,435.353119 305.080902,433.650024   C304.960754,426.827148 304.920898,420.002777 304.870636,413.178802   C304.861969,412.003662 304.988129,410.902557 306.173035,410.162201   C310.913544,407.200134 319.058746,409.282043 322.413086,414.695984  M312.885742,415.494354   C311.527130,416.333130 310.799438,417.460968 312.446564,418.509064   C313.565643,419.221039 315.274292,419.295959 315.794647,417.693298   C316.346375,415.993988 315.057953,415.391113 312.885742,415.494354  z"
   id="path25"
   style="fill:#695738;fill-opacity:1" />
<path
   fill="#000000"
   opacity="1.000000"
   stroke="none"
   d=" M217.319580,423.559082   C220.470505,420.156464 229.445801,419.648926 232.967621,422.348480   C236.681168,425.195007 237.089920,428.545654 234.094818,432.142731   C239.032684,438.854858 236.834564,444.707306 228.629440,446.612335   C225.119873,447.427155 221.510284,447.811310 216.954651,448.552429   C218.477524,440.054565 216.626938,432.058624 217.319580,423.559082  M224.832489,440.107147   C227.200562,441.474792 229.072479,441.413361 230.236160,438.183380   C227.795105,437.154663 225.744919,436.222656 224.832489,440.107147  z"
   id="path26"
   style="fill:#695738;fill-opacity:1" />
<path
   fill="#000000"
   opacity="1.000000"
   stroke="none"
   d=" M322.336304,221.553665   C322.321777,224.352310 323.259918,227.200439 319.814392,228.120987   C316.505402,229.005035 314.916931,227.103622 313.915863,224.287170   C313.474060,223.044266 312.968750,221.665192 311.243225,221.835968   C309.743073,221.984436 309.019562,223.124802 308.414764,224.357529   C307.717590,225.778534 307.527954,227.990646 305.335449,227.649384   C302.917786,227.273117 301.708984,225.234116 301.483337,222.987686   C300.773010,215.914841 302.579224,209.390533 307.134888,203.975082   C310.371521,200.127579 316.725616,201.680237 319.003662,206.657288   C321.096954,211.230774 321.288483,216.296844 322.336304,221.553665  z"
   id="path27"
   style="fill:#695738;fill-opacity:1" />
<path
   fill="#000000"
   opacity="1.000000"
   stroke="none"
   d=" M280.592896,228.527359   C270.439972,227.294891 263.275085,213.077362 268.125153,204.587799   C269.729889,201.778870 272.202667,200.768951 275.307098,201.367844   C278.784180,202.038635 281.306702,204.105392 283.123322,207.080414   C286.020264,211.824585 285.987122,217.232910 286.206146,222.468369   C286.337433,225.606735 283.791046,227.384094 280.592896,228.527359  z"
   id="path28"
   style="fill:#695738;fill-opacity:1" />
<path
   fill="#000000"
   opacity="1.000000"
   stroke="none"
   d=" M343.598206,418.057983   C341.537109,421.221771 340.499969,423.912994 343.245636,426.947418   C344.527710,428.364319 344.909302,430.407867 342.708191,431.620178   C340.642670,432.757874 338.910278,432.284821 337.707275,430.084045   C336.840454,428.498291 335.957306,426.810852 333.745941,426.720825   C331.669067,427.915833 332.463745,429.968750 332.294647,431.667175   C332.119720,433.424042 331.379181,434.497986 329.600372,434.659546   C327.647644,434.836914 326.143402,433.942230 326.084839,431.983185   C325.856110,424.334106 325.816620,416.679199 325.731079,409.026184   C325.721100,408.133942 326.223907,407.503998 327.004120,407.039398   C329.523132,405.539398 338.979431,405.587677 341.105652,407.306183   C344.520752,410.066376 344.974030,413.693970 343.598206,418.057983  M333.384918,413.813690   C332.280975,415.080200 331.516388,416.786041 333.583191,417.323334   C335.513519,417.825073 336.849670,416.268799 337.145782,414.248077   C336.254028,412.861816 335.086548,413.265533 333.384918,413.813690  z"
   id="path29"
   style="fill:#695738;fill-opacity:1" />
<path
   fill="#000000"
   opacity="1.000000"
   stroke="none"
   d=" M512.873352,217.437851   C510.830048,221.339600 509.018066,224.936371 504.963867,226.562775   C500.098969,228.514404 496.467865,227.026306 495.415436,221.968201   C494.006897,215.198608 494.556030,208.633240 500.136932,203.562622   C502.725159,201.211090 505.736359,199.853210 509.291779,201.127640   C512.810303,202.388840 513.522888,205.609772 514.088989,208.741196   C514.602966,211.584305 513.972717,214.372040 512.873352,217.437851  z"
   id="path30"
   style="fill:#695738;fill-opacity:1" />
<path
   fill="#000000"
   opacity="1.000000"
   stroke="none"
   d=" M472.718140,496.990234   C463.072083,498.487518 459.641449,495.667755 459.631500,486.323181   C459.627075,482.150421 458.473022,477.551147 463.184540,474.664154   C468.051331,471.681976 472.105896,472.133270 476.059113,476.391144   C480.702545,481.392334 481.528931,488.134308 478.013184,492.755615   C476.693054,494.490936 475.085388,495.929352 472.718140,496.990234  M470.357391,487.100281   C470.323639,485.318848 469.854309,483.703766 467.784058,483.595215   C466.567871,483.531494 466.160828,484.712189 466.470184,485.732666   C467.004242,487.494415 467.647980,489.406067 470.357391,487.100281  z"
   id="path31"
   style="fill:#695738;fill-opacity:1" />
<path
   fill="#000000"
   opacity="1.000000"
   stroke="none"
   d=" M409.571075,398.276123   C412.368713,400.570465 414.852966,402.668671 417.291992,404.728668   C419.585571,402.874237 418.826508,400.754303 418.962219,398.855347   C419.073853,397.293610 418.367401,395.201691 420.949249,395.115509   C423.057190,395.045135 424.490082,396.447754 424.803711,398.369110   C425.441925,402.278748 426.484009,406.161163 426.163940,410.188293   C425.979736,412.505920 425.878510,414.831818 425.627350,417.141785   C425.451080,418.763336 425.434174,420.598389 423.278381,421.043457   C421.433899,421.424225 420.124237,420.489594 418.900421,419.240631   C416.766266,417.062500 415.356537,414.066833 412.179077,412.860931   C410.542969,414.993835 411.507965,417.244293 411.172302,419.295990   C410.931824,420.765808 410.321045,421.830048 408.708374,421.920624   C407.081604,422.011963 406.080353,420.996216 406.045044,419.558868   C405.877960,412.759979 405.723511,405.953888 405.881317,399.157745   C405.933716,396.900574 407.777832,397.386475 409.571075,398.276123  z"
   id="path32"
   style="fill:#695738;fill-opacity:1" />
<path
   fill="#000000"
   opacity="1.000000"
   stroke="none"
   d=" M506.702087,498.244019   C501.081268,498.519196 498.317627,495.548798 497.124908,490.915588   C496.012512,486.594543 495.244720,482.185577 494.283936,477.824402   C493.593781,474.691681 494.653473,472.581696 497.835754,471.850281   C502.873077,470.692474 510.550964,476.580170 512.997131,483.382660   C515.331482,489.874146 513.195312,495.246643 506.702087,498.244019  z"
   id="path33"
   style="fill:#695738;fill-opacity:1" />
<path
   fill="#000000"
   opacity="1.000000"
   stroke="none"
   d=" M276.349060,434.316711   C277.094971,429.221985 276.249420,424.589264 276.026428,419.948578   C275.816406,415.577820 277.389130,413.646393 282.027954,413.575928   C286.842255,413.502838 291.394562,413.020508 294.070190,418.258850   C295.317261,420.700378 295.858521,423.268707 294.081573,425.297363   C290.663330,429.199768 291.488312,432.370483 294.893860,435.564117   C295.185699,435.837769 295.133179,436.478668 295.281647,437.128418   C288.932861,442.682098 287.534729,433.747406 283.461212,432.855072   C281.205292,435.055695 284.518829,440.714874 278.825378,440.196716   C275.344849,439.879974 276.260742,436.981049 276.349060,434.316711  M287.480835,421.077179   C285.997162,419.273773 284.251831,418.503906 282.722626,420.763702   C281.897339,421.983246 281.907623,423.914917 283.683533,424.507721   C285.892456,425.245148 287.586456,424.484009 287.480835,421.077179  z"
   id="path34"
   style="fill:#695738;fill-opacity:1" />
<path
   fill="#000000"
   opacity="1.000000"
   stroke="none"
   d=" M304.943481,496.007690   C301.122986,491.156433 300.950378,486.307983 303.709564,481.353394   C306.162262,476.949188 310.344116,476.333008 314.865326,476.573578   C317.184296,476.696960 318.973907,477.707642 320.335968,479.534760   C323.470184,483.738983 322.671051,490.549774 318.522247,495.091309   C314.857574,499.102783 310.355988,499.506561 304.943481,496.007690  z"
   id="path35"
   style="fill:#695738;fill-opacity:1" />
<path
   fill="#000000"
   opacity="1.000000"
   stroke="none"
   d=" M583.669373,397.252686   C583.578369,390.704498 583.542236,384.558929 583.566956,378.413574   C583.570129,377.626068 583.669067,376.677887 584.104919,376.083984   C585.310059,374.441895 595.251038,374.117554 597.630554,375.526154   C600.659302,377.319092 602.286438,382.713196 600.265991,386.199188   C598.560364,389.142181 598.124207,391.586700 600.205383,394.421387   C601.073730,395.604126 601.814819,397.259705 600.216248,398.427124   C598.526184,399.661316 596.747314,399.269470 595.251526,397.837891   C594.091553,396.727722 593.600647,394.882660 591.553589,394.554352   C589.202942,395.689209 590.660156,400.096741 586.952026,400.170044   C585.145813,400.205719 584.202515,399.271759 583.669373,397.252686  M592.836365,385.480103   C594.322876,384.328857 595.290283,382.999695 593.108521,381.746979   C591.947327,381.080261 590.358459,381.203918 589.795898,382.693695   C589.011047,384.772369 590.129822,385.711700 592.836365,385.480103  z"
   id="path36"
   style="fill:#695738;fill-opacity:1" />
<path
   fill="#000000"
   opacity="1.000000"
   stroke="none"
   d=" M441.142914,410.090820   C439.495178,408.600494 438.103790,407.234894 439.038666,405.165070   C439.910553,403.234650 441.886139,403.617126 443.446014,403.766479   C445.613190,403.974030 448.315521,402.584778 449.813995,405.179016   C450.992157,407.218658 447.733032,415.416351 445.238068,417.292603   C441.481323,420.117767 436.906891,420.072937 432.710083,417.169922   C428.350677,414.154419 426.453796,409.425751 427.879974,404.549011   C429.421295,399.278595 432.930573,395.672363 437.887878,393.409668   C439.860535,392.509247 441.762665,392.655090 443.628204,393.686493   C445.329010,394.626831 446.694244,395.914062 446.386749,398.003174   C446.064453,400.192749 444.131927,400.075134 442.486115,400.249115   C441.003326,400.405853 439.420593,400.316528 438.063202,400.822174   C434.650055,402.093628 433.890564,404.975067 434.567841,408.171051   C435.122223,410.786835 436.684784,412.726257 439.727203,412.652374   C441.208374,412.616425 442.602203,412.359528 441.142914,410.090820  z"
   id="path37"
   style="fill:#695738;fill-opacity:1" />
<path
   fill="#000000"
   opacity="1.000000"
   stroke="none"
   d=" M612.613037,378.298309   C609.980591,379.272675 609.638550,380.527191 611.913635,381.702576   C613.048706,382.288971 614.490540,382.302277 615.802734,382.519836   C617.154419,382.743896 618.589783,382.897614 618.511108,384.742493   C618.443542,386.325043 617.276978,386.902374 615.921936,387.371063   C614.297424,387.932892 612.185547,387.494659 611.103455,389.560211   C612.845398,391.573639 615.215515,390.286621 617.180664,390.834106   C618.721375,391.263336 620.082214,391.827606 620.116577,393.689850   C620.152344,395.628784 618.850769,396.184631 617.182434,396.341675   C615.360657,396.513153 613.545654,396.756561 611.728455,396.975159   C609.281128,397.269562 606.834534,397.570190 603.122192,398.022247   C603.122192,390.093689 603.090942,382.538879 603.144226,374.984650   C603.157532,373.096802 604.419006,372.615570 606.174133,372.492859   C609.151062,372.284607 612.111389,371.815491 615.072144,371.408447   C617.215576,371.113708 619.640808,370.311401 620.164185,373.533966   C620.673645,376.670624 618.524536,377.533875 615.966187,377.854980   C614.974854,377.979370 613.984436,378.111084 612.613037,378.298309  z"
   id="path38"
   style="fill:#695738;fill-opacity:1" />
<path
   fill="#000000"
   opacity="1.000000"
   stroke="none"
   d=" M284.170563,490.958435   C280.272919,498.003021 275.795135,500.117035 271.455383,497.235291   C267.157501,494.381287 266.607147,487.181244 270.291046,481.938354   C272.155212,479.285278 274.471466,477.146240 277.604614,476.149384   C280.468018,475.238342 283.317413,475.488098 285.556732,477.623932   C287.760681,479.726074 287.594025,482.389191 286.547058,485.047668   C285.815338,486.905640 285.066772,488.756989 284.170563,490.958435  z"
   id="path39"
   style="fill:#695738;fill-opacity:1" />
<path
   fill="#000000"
   opacity="1.000000"
   stroke="none"
   d=" M197.362213,445.929626   C189.283005,446.346497 181.640228,446.781433 173.991257,447.001526   C171.231049,447.080902 167.907242,447.382050 167.846207,443.102478   C167.789093,439.097961 170.659164,438.200958 173.855576,437.895966   C181.136200,437.201294 188.423050,436.572113 195.707230,435.914642   C198.917862,435.624847 202.316025,435.104187 203.336700,439.396973   C204.420547,443.955414 201.415695,445.222656 197.362213,445.929626  z"
   id="path40"
   style="fill:#695738;fill-opacity:1" />
<path
   fill="#000000"
   opacity="1.000000"
   stroke="none"
   d=" M249.951752,444.265686   C239.161041,445.473450 239.138046,445.473969 238.908234,434.982727   C238.817200,430.826630 238.921661,426.665802 238.806213,422.510773   C238.737793,420.047485 239.719467,418.862213 242.214005,418.623932   C245.355026,418.323853 248.464432,417.703766 251.602524,417.358429   C253.811432,417.115326 255.131790,418.182831 255.111633,420.491638   C255.092194,422.720459 253.988815,423.820831 251.647308,423.674042   C250.346161,423.592499 248.994507,423.639526 247.726227,423.911377   C246.577942,424.157501 245.544022,424.844757 245.520355,426.262146   C245.500488,427.453461 246.340408,428.000061 247.308472,428.380859   C249.109314,429.089355 252.189316,427.990784 252.122498,431.372650   C252.053696,434.855286 248.854797,433.916595 246.880936,434.705994   C246.463654,434.872894 246.166718,435.340668 245.690796,435.785248   C246.459213,438.289581 248.568878,437.663788 250.189346,437.584808   C252.668503,437.463959 254.546051,437.883728 254.720123,440.797089   C254.909210,443.961823 252.615662,444.091003 249.951752,444.265686  z"
   id="path41"
   style="fill:#695738;fill-opacity:1" />
<path
   fill="#000000"
   opacity="1.000000"
   stroke="none"
   d=" M266.940704,415.840942   C269.158844,415.637238 270.960266,415.479767 272.979156,415.303284   C274.241058,419.318787 273.278076,421.388458 268.841461,421.310760   C266.635071,421.272125 264.277802,421.589996 264.209991,424.584076   C264.146790,427.373840 266.249969,427.577332 268.359589,427.679596   C269.559235,427.737732 270.825378,428.014160 270.915833,429.486389   C271.015808,431.113586 269.750275,431.721161 268.410278,432.117218   C267.194550,432.476532 265.664307,432.096527 264.798035,433.889648   C266.142303,436.423676 268.680634,435.536621 270.793945,435.634674   C272.583862,435.717712 274.155243,435.762299 274.219696,438.149261   C274.274200,440.168030 273.427673,441.208099 271.372253,441.417542   C267.746429,441.787018 264.130493,442.256836 260.514374,442.716003   C258.504089,442.971283 257.809509,441.839966 257.742676,440.113159   C257.492432,433.647827 257.221069,427.182404 257.078308,420.714355   C257.028351,418.451813 258.137268,416.979248 260.617798,416.747925   C262.596100,416.563477 264.555939,416.181488 266.940704,415.840942  z"
   id="path42"
   style="fill:#695738;fill-opacity:1" />
<path
   fill="#000000"
   opacity="1.000000"
   stroke="none"
   d=" M575.889771,385.244507   C577.245544,389.219269 578.676208,392.736847 580.648010,396.028412   C581.646301,397.694763 582.144775,399.647919 580.325256,400.938751   C578.580017,402.176910 576.876709,402.132446 575.196777,400.063477   C572.563171,396.819855 569.565063,397.530823 567.510132,400.749756   C565.811584,403.410431 563.932312,403.812042 560.815369,402.487640   C562.319763,393.545990 565.660461,385.274658 568.768982,376.756989   C573.575317,378.221008 574.258606,381.875702 575.889771,385.244507  z"
   id="path43"
   style="fill:#695738;fill-opacity:1" />
<path
   fill="#000000"
   opacity="1.000000"
   stroke="none"
   d=" M395.881195,413.950989   C395.922943,409.491333 395.880432,405.516083 396.051147,401.549988   C396.135773,399.583252 397.021149,397.895111 399.372314,398.061737   C401.509216,398.213257 401.949280,399.996307 401.990875,401.683350   C402.141815,407.805481 402.164734,413.930756 402.244019,420.054718   C402.275360,422.474548 401.114288,423.789886 398.679565,423.833557   C396.299744,423.876251 396.192383,422.062073 396.080658,420.393097   C395.948151,418.412964 395.944427,416.424194 395.881195,413.950989  z"
   id="path44"
   style="fill:#695738;fill-opacity:1" />
</svg>
